<svg xmlns="http://www.w3.org/2000/svg" viewBox="0 0 100 100">
  <defs>
    <linearGradient id="bg" x1="0%" y1="0%" x2="100%" y2="100%">
      <stop offset="0%" style="stop-color:#3b82f6"/>
      <stop offset="100%" style="stop-color:#8b5cf6"/>
    </linearGradient>
  </defs>
  <rect width="100" height="100" rx="20" fill="url(#bg)"/>
  <!-- Open book -->
  <path d="M20 70 L20 30 Q50 20 50 30 L50 70 Q50 60 20 70Z" fill="#fbbf24" stroke="#f59e0b" stroke-width="1.5"/>
  <path d="M80 70 L80 30 Q50 20 50 30 L50 70 Q50 60 80 70Z" fill="#fde68a" stroke="#f59e0b" stroke-width="1.5"/>
  <!-- Book lines -->
  <line x1="30" y1="40" x2="46" y2="38" stroke="#92400e" stroke-width="1.5" opacity="0.4"/>
  <line x1="30" y1="48" x2="46" y2="46" stroke="#92400e" stroke-width="1.5" opacity="0.4"/>
  <line x1="30" y1="56" x2="46" y2="54" stroke="#92400e" stroke-width="1.5" opacity="0.4"/>
  <line x1="54" y1="38" x2="70" y2="40" stroke="#92400e" stroke-width="1.5" opacity="0.4"/>
  <line x1="54" y1="46" x2="70" y2="48" stroke="#92400e" stroke-width="1.5" opacity="0.4"/>
  <line x1="54" y1="54" x2="70" y2="56" stroke="#92400e" stroke-width="1.5" opacity="0.4"/>
  <!-- Stars -->
  <circle cx="25" cy="20" r="3" fill="#fbbf24"/>
  <circle cx="75" cy="18" r="2.5" fill="#fbbf24"/>
  <circle cx="60" cy="15" r="1.5" fill="#fde68a"/>
</svg>
